<svg id="Layer_1" data-name="Layer 1" xmlns="http://www.w3.org/2000/svg" width="35" height="12"
    viewBox="0 0 51.24 17.1">
    <defs>
        <style>.cls-1{fill:#8f8f8f;}</style>
    </defs>
    <path class="cls-1"
        d="M51.24,3.59c0,.14-.06.29-.1.43a2.76,2.76,0,0,1-2.89,2.11,5.23,5.23,0,0,1-1.61-.27,2.16,2.16,0,0,0-.61,0,7,7,0,0,1-.8.07H37.39l.18-1.19h3.17s0,0,0,0c0-.77,0-1.55,0-2.32A1.33,1.33,0,0,0,40.56,2a1.13,1.13,0,0,0-1.11-.75H37.94C38,.9,38,.54,38.1.19a.18.18,0,0,1,.13-.11,16.79,16.79,0,0,1,2.13.07,2.4,2.4,0,0,1,2,2.1,8.9,8.9,0,0,1,.09,1.26c0,.4,0,.81,0,1.23h2.94a.23.23,0,0,0,.27-.24,2,2,0,0,0,0-.34V1.89A1.53,1.53,0,0,1,46.87.23a9.18,9.18,0,0,1,1-.23h.73l.16,0a2.7,2.7,0,0,1,2.32,2l.12.54Zm-4-1.95c0,.23.05.42.05.61,0,.71,0,1.43,0,2.15,0,.18.06.24.22.25s.57.06.85.06a1.09,1.09,0,0,0,1.18-.87,3.07,3.07,0,0,0,0-1.62,1,1,0,0,0-.6-.71A2.51,2.51,0,0,0,47.22,1.64Z" />
    <path class="cls-1"
        d="M36.8.1l-.19,1.2H33.15a3.4,3.4,0,0,0-.45,0,.66.66,0,0,0-.64.75.68.68,0,0,0,.7.7c.54,0,1.08,0,1.62,0a4.29,4.29,0,0,1,.72.08,1.76,1.76,0,0,1,1.45,1.82,2.68,2.68,0,0,1-.08.7,1.62,1.62,0,0,1-1.41,1.22A5.65,5.65,0,0,1,34,6.72c-2.38,0-4.75,0-7.12,0a2.44,2.44,0,0,1-2.54-2.45,6.33,6.33,0,0,1,.13-2.17A2.51,2.51,0,0,1,26.92.18h2.26L29,1.4h-.85c-.28,0-.56,0-.83,0a1.12,1.12,0,0,0-1.07.73,2.29,2.29,0,0,0-.19.82,8.9,8.9,0,0,0,.05,1.55,1.09,1.09,0,0,0,1.09,1c.69,0,1.39,0,2.09,0h4.6a1.83,1.83,0,0,0,.33,0,.81.81,0,0,0-.14-1.62c-.67,0-1.34,0-2,0A1.65,1.65,0,0,1,30.5,2.67,1.91,1.91,0,0,1,31.05.61,2.6,2.6,0,0,1,32.61.1c1.37,0,2.73,0,4.1,0Z" />
    <path class="cls-1"
        d="M51.24,17.1c-.53-.1-1.06-.21-1.59-.29a1.44,1.44,0,0,0-.46.05,4.58,4.58,0,0,1-1.95,0A1.55,1.55,0,0,1,46,15.35a1.5,1.5,0,0,1,1.14-1.63,7.79,7.79,0,0,1,1.45-.2,8.34,8.34,0,0,1,1,0c.16-.68-.16-1.1-.83-1.11a6.1,6.1,0,0,0-2.15.39l-.22.07-.18-1.2a7,7,0,0,1,3.52-.46,1.69,1.69,0,0,1,1.48,1.59,1.1,1.1,0,0,0,0,.16ZM49,14.49v0a9.27,9.27,0,0,0-.92.14.63.63,0,0,0-.42.71.56.56,0,0,0,.51.55,3.47,3.47,0,0,0,1-.06c.53-.09.53-.11.52-.65,0-.21.06-.49,0-.61S49.2,14.5,49,14.49Z" />
    <path class="cls-1"
        d="M32.55,16.91H30.87V13.44c0-.11,0-.23,0-.34a.63.63,0,0,0-.56-.58,2,2,0,0,0-1.06.18c0,.47,0,.92,0,1.36,0,.87,0,1.74,0,2.61v.24H27.6v-.25c0-1.07,0-2.13,0-3.2,0-.83-.36-1.05-1.14-.91-.46.08-.46.09-.46.56V16.9H24.3V12.5c0-.7.17-.94.85-1.12a5.41,5.41,0,0,1,2.56-.17,2.36,2.36,0,0,1,.67.25.31.31,0,0,0,.31,0,4,4,0,0,1,2.55-.24,1.54,1.54,0,0,1,1.27,1.51c0,1.1,0,2.2,0,3.29Z" />
    <path class="cls-1"
        d="M43.36,11.37v-.25c0-.69,0-1.39,0-2.09,0-.11,0-.19.15-.21l1.54-.26V8.8c0,2.29,0,4.59,0,6.88,0,.65-.14.86-.77,1.05a5.52,5.52,0,0,1-2.49.18,2.45,2.45,0,0,1-2.12-2.37,4.72,4.72,0,0,1,.12-1.63A2.16,2.16,0,0,1,42,11.17a7.37,7.37,0,0,1,1.14.13A2.18,2.18,0,0,1,43.36,11.37Zm0,2.73v-.83c0-.76,0-.76-.77-.83a1,1,0,0,0-1.18.81,3,3,0,0,0,0,1.61,1.08,1.08,0,0,0,1.17.87,5.14,5.14,0,0,0,.55-.06c.17,0,.24-.08.23-.27C43.35,15,43.36,14.54,43.36,14.1Z" />
    <path class="cls-1"
        d="M37.09,13.51c.06-.85-.21-1.14-1-1.11a6.5,6.5,0,0,0-2,.39l-.23.07c-.06-.38-.11-.75-.16-1.12a.14.14,0,0,1,.09-.11,7.78,7.78,0,0,1,2.82-.51l.45.05a1.74,1.74,0,0,1,1.63,1.92c0,1.28,0,2.57,0,3.85,0,0,0,.08,0,.15a4.32,4.32,0,0,1-.54-.1,4.48,4.48,0,0,0-2.06,0,2.91,2.91,0,0,1-1.52-.1,1.52,1.52,0,0,1-1.09-1.5,1.49,1.49,0,0,1,1-1.57,4.17,4.17,0,0,1,1.44-.26Zm0,1c-.49,0-.94,0-1.38,0a.66.66,0,0,0-.62.74.62.62,0,0,0,.69.61,8.48,8.48,0,0,0,1.21-.2s.09-.07.09-.11C37.13,15.23,37.13,14.88,37.13,14.53Z" />
    <rect class="cls-1" width="20" height="8" />
    <rect class="cls-1" y="12.79" width="20" height="16" />
</svg>