<svg id="Layer_1" data-name="Layer 1" xmlns="http://www.w3.org/2000/svg" viewBox="0 0 27.9 16.69"><defs><style>.cls-1{fill:#ababab;}.cls-2{fill:#cecbca;}.cls-3{fill:#8f8f8f;}.cls-4{fill:#606161;}</style></defs><rect class="cls-1" x="10.3" y="1.78" width="7.3" height="13.12"/><path class="cls-2" d="M10.76,8.35A8.39,8.39,0,0,1,14,1.78a8.35,8.35,0,1,0,0,13.13A8.35,8.35,0,0,1,10.76,8.35Z"/><path class="cls-3" d="M27.45,8.35A8.35,8.35,0,0,1,14,14.91a8.35,8.35,0,0,0,1.4-11.72A8.49,8.49,0,0,0,14,1.78a8.34,8.34,0,0,1,13.5,6.57Z"/><path class="cls-4" d="M26.63,13.69v-.28h.11v-.05h-.28v.05h.11v.28Zm.55,0v-.34H27.1l-.1.23-.1-.23h-.09v.34h.06v-.25l.09.21H27l.09-.21v.25Z"/></svg>