<svg xmlns="http://www.w3.org/2000/svg" width="43.6" height="14.14" viewBox="0 0 50.862 16.5">
  <g id="Group_6566" data-name="Group 6566" transform="translate(-1399.726 -13870.715)">
    <g id="Group_67" data-name="Group 67" transform="translate(-14033.5 2781.196)">
      <g id="Group_66" data-name="Group 66" transform="translate(15433.226 11089.519)">
        <path id="Path_75" data-name="Path 75"
          d="M33.275,67.745h-4.15L31.719,51.8H35.87ZM25.634,51.8,21.677,62.768l-.468-2.361h0l-1.4-7.169A1.777,1.777,0,0,0,17.844,51.8H11.3l-.077.27A15.526,15.526,0,0,1,15.567,53.9l3.606,13.849H23.5L30.1,51.8ZM58.278,67.745h3.811L58.766,51.8H55.43a1.907,1.907,0,0,0-1.916,1.188l-6.19,14.753H51.65l.865-2.368h5.276l.486,2.368Zm-4.567-5.639,2.181-5.966,1.227,5.966Zm-6.062-6.469.592-3.423a11.979,11.979,0,0,0-3.733-.7c-2.06,0-6.951.9-6.951,5.277,0,4.118,5.74,4.169,5.74,6.333s-5.149,1.776-6.848.411l-.617,3.579a11.631,11.631,0,0,0,4.685.9c2.832,0,7.1-1.466,7.1-5.458,0-4.145-5.792-4.531-5.792-6.333s4.042-1.571,5.818-.592Z"
          transform="translate(-11.226 -51.519)" fill="#8c8c8c" />
      </g>
      <path id="Path_76" data-name="Path 76"
        d="M21.209,60.79l-1.4-7.169a1.777,1.777,0,0,0-1.969-1.435H11.3l-.077.27a16.08,16.08,0,0,1,6.16,3.093A12.43,12.43,0,0,1,21.209,60.79Z"
        transform="translate(15422 11037.617)" fill="#8c8c8c" />
    </g>
  </g>
</svg>