<svg xmlns="http://www.w3.org/2000/svg" width="31.412" height="24.264" viewBox="0 0 31.412 24.264">
  <g id="Group_6711" data-name="Group 6711" transform="translate(-792.133 -516.063)">
    <circle id="Ellipse_889" data-name="Ellipse 889" cx="3.109" cy="3.109" r="3.109" transform="translate(810.185 516.562)" fill="none" stroke="#161615" stroke-miterlimit="10" stroke-width="1"/>
    <circle id="Ellipse_890" data-name="Ellipse 890" cx="3.075" cy="3.075" r="3.075" transform="translate(799.425 527.391)" fill="none" stroke="#161615" stroke-miterlimit="10" stroke-width="1"/>
    <path id="Path_21366" data-name="Path 21366" d="M816.678,524.3v2.615l1.036,1.192,1.195-1.1v-2.7" transform="translate(-4.499 -1.448)" fill="none" stroke="#161615" stroke-miterlimit="10" stroke-width="1"/>
    <path id="Path_21367" data-name="Path 21367" d="M799.977,531.5h-.958l-6.386,9.056h4.674" transform="translate(0 -2.796)" fill="none" stroke="#161615" stroke-linecap="round" stroke-linejoin="round" stroke-width="1"/>
    <path id="Path_21368" data-name="Path 21368" d="M810.523,540.56H825.9l-6.641-9.056H807.874" transform="translate(-2.852 -2.796)" fill="none" stroke="#161615" stroke-linecap="round" stroke-linejoin="round" stroke-width="1"/>
    <path id="Path_21369" data-name="Path 21369" d="M822.047,530.157v-1.649A4.289,4.289,0,0,0,817.7,524.3H816a4.289,4.289,0,0,0-4.342,4.208v1.649Z" transform="translate(-3.56 -1.448)" fill="none" stroke="#161615" stroke-linecap="round" stroke-linejoin="round" stroke-width="1"/>
    <path id="Path_21370" data-name="Path 21370" d="M808.768,543.832v-1.649a4.29,4.29,0,0,0-4.342-4.208h-1.7a4.29,4.29,0,0,0-4.342,4.208v1.649Z" transform="translate(-1.076 -4.007)" fill="none" stroke="#161615" stroke-linecap="round" stroke-linejoin="round" stroke-width="1"/>
  </g>
</svg>
