<svg xmlns="http://www.w3.org/2000/svg" width="25" height="25" viewBox="0 0 25 25">
  <g id="Group_6713" data-name="Group 6713" transform="translate(-919.629 -564.398)">
    <g id="Group_6712" data-name="Group 6712" transform="translate(920.129 564.898)">
      <path id="Path_21371" data-name="Path 21371" d="M943.994,588.763l-2.1-.787-1.773.923-1.775-.923-1.774.923-1.774-.923-1.774.923-1.772-.923-1.774.923-1.776-.923-1.776.923-1.777-.923-1.779.923-1.454-.788-.787-1.447.923-1.773-.923-1.775.923-1.773-.923-1.775.923-1.774-.923-1.771.923-1.774-.923-1.776.923-1.776-.923-1.777.923-1.779-.788-2.105,2.1.787,1.773-.923,1.775.923,1.774-.923,1.774.923,1.774-.923,1.771.923,1.774-.923,1.776.923,1.776-.923,1.777.923,1.779-.923,1.454.788.787,1.447-.923,1.773.923,1.775-.923,1.774.923,1.774L943.206,576l.923,1.772-.923,1.774.923,1.776-.923,1.776.923,1.777-.921,1.818Z" transform="translate(-920.129 -564.898)" fill="none" stroke="#161615" stroke-linecap="round" stroke-linejoin="round" stroke-width="1"/>
    </g>
    <line id="Line_187" data-name="Line 187" y1="1.461" x2="1.071" transform="translate(926.123 569.985)" fill="none" stroke="#161615" stroke-linecap="round" stroke-linejoin="round" stroke-width="1"/>
    <line id="Line_188" data-name="Line 188" y1="1.461" x2="1.071" transform="translate(929.063 569.985)" fill="none" stroke="#161615" stroke-linecap="round" stroke-linejoin="round" stroke-width="1"/>
    <line id="Line_189" data-name="Line 189" y1="1.461" x2="1.071" transform="translate(932.004 569.985)" fill="none" stroke="#161615" stroke-linecap="round" stroke-linejoin="round" stroke-width="1"/>
    <line id="Line_190" data-name="Line 190" y1="1.461" x2="1.071" transform="translate(934.945 569.985)" fill="none" stroke="#161615" stroke-linecap="round" stroke-linejoin="round" stroke-width="1"/>
    <line id="Line_191" data-name="Line 191" y1="1.461" x2="1.071" transform="translate(937.885 569.985)" fill="none" stroke="#161615" stroke-linecap="round" stroke-linejoin="round" stroke-width="1"/>
    <line id="Line_192" data-name="Line 192" y1="1.461" x2="1.071" transform="translate(926.123 576.168)" fill="none" stroke="#161615" stroke-linecap="round" stroke-linejoin="round" stroke-width="1"/>
    <line id="Line_193" data-name="Line 193" y1="1.461" x2="1.071" transform="translate(929.063 576.168)" fill="none" stroke="#161615" stroke-linecap="round" stroke-linejoin="round" stroke-width="1"/>
    <line id="Line_194" data-name="Line 194" y1="1.461" x2="1.071" transform="translate(932.004 576.168)" fill="none" stroke="#161615" stroke-linecap="round" stroke-linejoin="round" stroke-width="1"/>
    <line id="Line_195" data-name="Line 195" y1="1.461" x2="1.071" transform="translate(934.945 576.168)" fill="none" stroke="#161615" stroke-linecap="round" stroke-linejoin="round" stroke-width="1"/>
    <line id="Line_196" data-name="Line 196" y1="1.461" x2="1.071" transform="translate(937.885 576.168)" fill="none" stroke="#161615" stroke-linecap="round" stroke-linejoin="round" stroke-width="1"/>
    <line id="Line_197" data-name="Line 197" y1="1.461" x2="1.071" transform="translate(926.123 581.611)" fill="none" stroke="#161615" stroke-linecap="round" stroke-linejoin="round" stroke-width="1"/>
    <line id="Line_198" data-name="Line 198" y1="1.461" x2="1.071" transform="translate(929.063 581.611)" fill="none" stroke="#161615" stroke-linecap="round" stroke-linejoin="round" stroke-width="1"/>
    <line id="Line_199" data-name="Line 199" y1="1.461" x2="1.071" transform="translate(932.004 581.611)" fill="none" stroke="#161615" stroke-linecap="round" stroke-linejoin="round" stroke-width="1"/>
    <line id="Line_200" data-name="Line 200" y1="1.461" x2="1.071" transform="translate(934.945 581.611)" fill="none" stroke="#161615" stroke-linecap="round" stroke-linejoin="round" stroke-width="1"/>
    <line id="Line_201" data-name="Line 201" y1="1.461" x2="1.071" transform="translate(937.885 581.611)" fill="none" stroke="#161615" stroke-linecap="round" stroke-linejoin="round" stroke-width="1"/>
  </g>
</svg>
