<svg xmlns="http://www.w3.org/2000/svg" width="21.645" height="24.002" viewBox="0 0 21.645 24.002">
  <g id="Group_6667" data-name="Group 6667" transform="translate(-1215.559 -87.809)">
    <path id="Path_21339" data-name="Path 21339" d="M1397.313,436.955h-6.775a2.274,2.274,0,0,1-2.274-2.274v-1.412" transform="translate(-172.206 -330.935)" fill="none" stroke="#15181a" stroke-miterlimit="10" stroke-width="1"/>
    <path id="Path_21340" data-name="Path 21340" d="M1414.426,371.578h15.981v14.685h-5.334" transform="translate(-193.703 -280.244)" fill="none" stroke="#15181a" stroke-miterlimit="10" stroke-width="1"/>
    <path id="Path_21341" data-name="Path 21341" d="M1392.931,354.673v12.6h-2.756a1.914,1.914,0,0,0-1.908,1.908V356.342a1.722,1.722,0,0,1,1.721-1.722h2.89A.053.053,0,0,1,1392.931,354.673Z" transform="translate(-172.208 -266.31)" fill="none" stroke="#15181a" stroke-miterlimit="10" stroke-width="1"/>
    <path id="Path_21342" data-name="Path 21342" d="M1390.175,445.144h-.187a1.721,1.721,0,0,1-1.721-1.721v-.187A1.914,1.914,0,0,0,1390.175,445.144Z" transform="translate(-172.208 -339.125)" fill="#fda531" stroke="#15181a" stroke-width="1"/>
    <path id="Rectangle_1157" data-name="Rectangle 1157" d="M0,0H6.263a0,0,0,0,1,0,0V13.714a3.131,3.131,0,0,1-3.131,3.131h0A3.131,3.131,0,0,1,0,13.714V0A0,0,0,0,1,0,0Z" transform="translate(1225.107 94.466)" fill="none" stroke="#15181a" stroke-miterlimit="10" stroke-width="1"/>
    <circle id="Ellipse_877" data-name="Ellipse 877" cx="1.123" cy="1.123" r="1.123" transform="translate(1227.116 106.797)" fill="none" stroke="#15181a" stroke-miterlimit="10" stroke-width="1"/>
  </g>
</svg>
