<svg xmlns="http://www.w3.org/2000/svg" width="31.555" height="17.763" viewBox="0 0 31.555 17.763">
  <g id="Group_24617" data-name="Group 24617" transform="translate(-991 -444)">
    <g id="_360_icon_02-01" data-name="360 icon 02-01" transform="translate(991 444)">
      <path id="Path_32337" data-name="Path 32337" d="M9.964,8.021A2.932,2.932,0,0,1,9.017,10.3a3.177,3.177,0,0,1-2.276.916,3.91,3.91,0,0,1-2.306-.733A2.841,2.841,0,0,1,3.4,9.182a3.055,3.055,0,0,1-.214-.657.458.458,0,0,1,0-.153h0a.2.2,0,0,1,.2-.244H4.816a.244.244,0,0,1,.229.168h0a1.527,1.527,0,0,0,.122.321A1.527,1.527,0,0,0,6.7,9.579a1.527,1.527,0,0,0,1.084-.428,1.237,1.237,0,0,0,.458-.977.932.932,0,0,0,0-.214A1.3,1.3,0,0,0,8.1,7.486a1.619,1.619,0,0,0-.275-.412A1.894,1.894,0,0,0,6.39,6.555h0a.2.2,0,0,1-.2-.2V5.134a.214.214,0,0,1,.2-.214h0a1.818,1.818,0,0,0,1.1-.4A1.054,1.054,0,0,0,7.9,3.668a1.314,1.314,0,0,0-.412-.932A1.279,1.279,0,0,0,5.748,2.66a1.955,1.955,0,0,0-.5.871h0a.214.214,0,0,1-.2.137H3.61a.2.2,0,0,1-.2-.229h0A2.81,2.81,0,0,1,4.435,1.408,3.314,3.314,0,0,1,6.5.751a3.345,3.345,0,0,1,2.291.794,2.566,2.566,0,0,1,.932,2.031,2.383,2.383,0,0,1-.947,1.94.214.214,0,0,0,0,.321A2.764,2.764,0,0,1,9.841,7.242l.092.428A2.507,2.507,0,0,1,9.964,8.021Z" transform="translate(1.69 0.41)" fill="#202224"/>
      <path id="Path_32338" data-name="Path 32338" d="M15.226,7.316A3.207,3.207,0,0,0,14.188,5.3a3.5,3.5,0,0,0-2.459-1.039h-.153l1.772-2.581h0a.244.244,0,0,0,0-.336h0L12.309.673h0a.229.229,0,0,0-.321,0h0L8.659,5.53A3.681,3.681,0,0,0,8,7.316a2.947,2.947,0,0,0,0,.367H8a3.452,3.452,0,0,0,1.069,2.5,3.574,3.574,0,0,0,2.581,1.054,3.467,3.467,0,0,0,2.566-1.084,3.528,3.528,0,0,0,1.039-2.5V7.561A1.94,1.94,0,0,0,15.226,7.316ZM12.9,8.844a1.863,1.863,0,0,1-2.581,0,1.7,1.7,0,0,1-.535-1.283h0a1.757,1.757,0,0,1,0-.4,1.848,1.848,0,0,1,.5-.855,1.756,1.756,0,0,1,1.329-.519,1.7,1.7,0,0,1,1.268.55,1.772,1.772,0,0,1,.5.855,2.9,2.9,0,0,1,0,.382h0A1.772,1.772,0,0,1,12.9,8.844Z" transform="translate(4.232 0.335)" fill="#202224"/>
      <path id="Path_32339" data-name="Path 32339" d="M19.351,2.247A3.131,3.131,0,0,0,16.663.72h0a3.268,3.268,0,0,0-2.658,1.42,6.232,6.232,0,0,0-1.069,3.849,9.516,9.516,0,0,0,0,1.176.768.768,0,0,0,.076.412A5.422,5.422,0,0,0,13.9,9.655a3.129,3.129,0,0,0,5.376,0,5.193,5.193,0,0,0,.428-.687,5.024,5.024,0,0,0,.26-.6,7.347,7.347,0,0,0,.4-2.49A6.415,6.415,0,0,0,19.351,2.247ZM18.221,7.96c-.076.168-.153.336-.244.5h0a1.527,1.527,0,0,1-1.329.871,1.619,1.619,0,0,1-1.405-.871,3.406,3.406,0,0,1-.305-.626,2.281,2.281,0,0,0-.137-.473,6.338,6.338,0,0,1-.153-1.39,4.9,4.9,0,0,1,.58-2.535,1.527,1.527,0,0,1,2.749,0,4.781,4.781,0,0,1,.58,2.474A5.7,5.7,0,0,1,18.221,7.96Z" transform="translate(6.827 0.395)" fill="#202224"/>
      <path id="Path_32340" data-name="Path 32340" d="M25.3,7.924a1.726,1.726,0,0,1-.137.687,2.26,2.26,0,0,1-.321.565,3.91,3.91,0,0,1-.412.443,4.811,4.811,0,0,1-.458.367,9.958,9.958,0,0,1-1.94,1.039,19.98,19.98,0,0,1-2.031.7c-.687.2-1.375.382-2.062.535a34.364,34.364,0,0,1-6.109.809l1.787-1.008-1.527-.809h1.527c1.359-.076,2.719-.2,4.063-.382.672-.092,1.329-.214,2-.351A17.3,17.3,0,0,0,21.62,10a9.454,9.454,0,0,0,.916-.351L22.98,9.3c.137,0,.275-.153.412-.229a2.291,2.291,0,0,0,.367-.275,1.665,1.665,0,0,0,.535-.611.825.825,0,0,0,.015-.26.794.794,0,0,0,0-.321,1.359,1.359,0,0,0-.2-.351,2.749,2.749,0,0,0-.29-.321l-.367-.29-.412-.26-.428-.244L21.8,5.77a.122.122,0,0,1-.076-.122h0a.122.122,0,0,1,.153-.107,8.293,8.293,0,0,1,2.7,1.191l.244.2a1.39,1.39,0,0,1,.458.9.2.2,0,0,1,.015.092Z" transform="translate(6.254 2.935)" fill="#202224"/>
      <path id="Path_32341" data-name="Path 32341" d="M19.051,12.066l-5.3-2.413.5,1.527a24.154,24.154,0,0,1-2.581-.092,35.517,35.517,0,0,1-4.032-.275c-.672-.092-1.344-.2-2-.336s-1.314-.321-1.94-.519a8.186,8.186,0,0,1-.916-.367l-.458-.305-.412-.244a2.23,2.23,0,0,1-.382-.2,2.047,2.047,0,0,1-.321-.305,1.313,1.313,0,0,1-.2-.305,1.268,1.268,0,0,1-.076-.321,1.191,1.191,0,0,1,0-.321,1.3,1.3,0,0,1,.2-.336,2.963,2.963,0,0,1,.4-.321,3.223,3.223,0,0,1,.351-.29l.412-.26.428-.244L3.243,5.9h0l.244-.107a.173.173,0,0,0-.122-.229h-.2a7.927,7.927,0,0,0-2.5,1.145l-.244.2a1.39,1.39,0,0,0-.412.855.2.2,0,0,0,0,.153A1.726,1.726,0,0,0,.143,8.6a2.26,2.26,0,0,0,.321.565,3.91,3.91,0,0,0,.412.443,4.811,4.811,0,0,0,.458.367,9.958,9.958,0,0,0,1.94,1.039,19.978,19.978,0,0,0,2.031.7c.687.2,1.375.382,2.062.535l1.207.244a42.765,42.765,0,0,0,4.826.535h.871l-.519,1.787Z" transform="translate(0.01 2.947)" fill="#202224"/>
      <path id="Path_32342" data-name="Path 32342" d="M19.106,2.892a1.451,1.451,0,1,1,1.436-1.451,1.451,1.451,0,0,1-1.436,1.451Zm0-2.306a.863.863,0,1,0,.825.855.871.871,0,0,0-.825-.855Z" transform="translate(9.317 0.01)" fill="#202224"/>
    </g>
  </g>
</svg>
